<svg width="25" height="25" viewBox="0 0 25 25" fill="none" xmlns="http://www.w3.org/2000/svg">
<path d="M19.5 9.5C19.5 10.95 19.07 12.28 18.33 13.39C17.25 14.99 15.54 16.12 13.55 16.41C13.21 16.47 12.86 16.5 12.5 16.5C12.14 16.5 11.79 16.47 11.45 16.41C9.46 16.12 7.75 14.99 6.67 13.39C5.93 12.28 5.5 10.95 5.5 9.5C5.5 5.63 8.63 2.5 12.5 2.5C16.37 2.5 19.5 5.63 19.5 9.5Z" stroke="#FCF7F8" stroke-width="1.5" stroke-linecap="round" stroke-linejoin="round"/>
<path d="M21.75 18.9699L20.1 19.3599C19.73 19.4499 19.44 19.7299 19.36 20.0999L19.01 21.5699C18.82 22.3699 17.8 22.6099 17.27 21.9799L12.5 16.4999L7.72996 21.9899C7.19996 22.6199 6.17996 22.3799 5.98996 21.5799L5.63996 20.1099C5.54996 19.7399 5.25996 19.4499 4.89996 19.3699L3.24996 18.9799C2.48996 18.7999 2.21996 17.8499 2.76996 17.2999L6.66996 13.3999C7.74996 14.9999 9.45996 16.1299 11.45 16.4199C11.79 16.4799 12.14 16.5099 12.5 16.5099C12.86 16.5099 13.21 16.4799 13.55 16.4199C15.54 16.1299 17.25 14.9999 18.33 13.3999L22.23 17.2999C22.78 17.8399 22.51 18.7899 21.75 18.9699Z" stroke="#FCF7F8" stroke-width="1.5" stroke-linecap="round" stroke-linejoin="round"/>
<path d="M13.08 6.48L13.67 7.65999C13.75 7.81999 13.96 7.98 14.15 8.01L15.22 8.18999C15.9 8.29999 16.06 8.8 15.57 9.29L14.74 10.12C14.6 10.26 14.52 10.53 14.57 10.73L14.81 11.76C15 12.57 14.57 12.89 13.85 12.46L12.85 11.87C12.67 11.76 12.37 11.76 12.19 11.87L11.19 12.46C10.47 12.88 10.04 12.57 10.23 11.76L10.47 10.73C10.51 10.54 10.44 10.26 10.3 10.12L9.46997 9.29C8.97997 8.8 9.13997 8.30999 9.81997 8.18999L10.89 8.01C11.07 7.98 11.28 7.81999 11.36 7.65999L11.95 6.48C12.24 5.84 12.76 5.84 13.08 6.48Z" stroke="#FCF7F8" stroke-width="1.5" stroke-linecap="round" stroke-linejoin="round"/>
</svg>
