<svg width="25" height="24" viewBox="0 0 25 24" fill="none" xmlns="http://www.w3.org/2000/svg">
<path d="M9.66006 10.87C9.56006 10.86 9.44006 10.86 9.33006 10.87C6.95006 10.79 5.06006 8.84 5.06006 6.44C5.06006 3.99 7.04006 2 9.50006 2C11.9501 2 13.9401 3.99 13.9401 6.44C13.9301 8.84 12.0401 10.79 9.66006 10.87Z" stroke="#FCF7F8" stroke-width="1.5" stroke-linecap="round" stroke-linejoin="round"/>
<path d="M16.91 4C18.85 4 20.41 5.57 20.41 7.5C20.41 9.39 18.91 10.93 17.04 11C16.96 10.99 16.87 10.99 16.78 11" stroke="#FCF7F8" stroke-width="1.5" stroke-linecap="round" stroke-linejoin="round"/>
<path d="M4.65997 14.56C2.23997 16.18 2.23997 18.82 4.65997 20.43C7.40997 22.27 11.92 22.27 14.67 20.43C17.09 18.81 17.09 16.17 14.67 14.56C11.93 12.73 7.41997 12.73 4.65997 14.56Z" stroke="#FCF7F8" stroke-width="1.5" stroke-linecap="round" stroke-linejoin="round"/>
<path d="M18.8401 20C19.5601 19.85 20.2401 19.56 20.8001 19.13C22.3601 17.96 22.3601 16.03 20.8001 14.86C20.2501 14.44 19.5801 14.16 18.8701 14" stroke="#FCF7F8" stroke-width="1.5" stroke-linecap="round" stroke-linejoin="round"/>
</svg>
