<svg width="25" height="25" viewBox="0 0 25 25" fill="none" xmlns="http://www.w3.org/2000/svg">
<path d="M18.5 19.3597H17.74C16.94 19.3597 16.18 19.6697 15.62 20.2297L13.91 21.9197C13.13 22.6897 11.86 22.6897 11.08 21.9197L9.37 20.2297C8.81 19.6697 8.04 19.3597 7.25 19.3597H6.5C4.84 19.3597 3.5 18.0298 3.5 16.3898V5.47974C3.5 3.83974 4.84 2.50977 6.5 2.50977H18.5C20.16 2.50977 21.5 3.83974 21.5 5.47974V16.3898C21.5 18.0198 20.16 19.3597 18.5 19.3597Z" stroke="#FCF7F8" stroke-width="1.5" stroke-miterlimit="10" stroke-linecap="round" stroke-linejoin="round"/>
<path d="M12.4999 10.4998C13.7868 10.4998 14.83 9.45662 14.83 8.1698C14.83 6.88298 13.7868 5.83984 12.4999 5.83984C11.2131 5.83984 10.1699 6.88298 10.1699 8.1698C10.1699 9.45662 11.2131 10.4998 12.4999 10.4998Z" stroke="#FCF7F8" stroke-width="1.5" stroke-linecap="round" stroke-linejoin="round"/>
<path d="M16.5 16.1599C16.5 14.3599 14.71 12.8999 12.5 12.8999C10.29 12.8999 8.5 14.3599 8.5 16.1599" stroke="#FCF7F8" stroke-width="1.5" stroke-linecap="round" stroke-linejoin="round"/>
</svg>
